<?xml version="1.0" encoding="UTF-8"?>
<svg id="Layer_2" data-name="Layer 2" xmlns="http://www.w3.org/2000/svg" viewBox="0 0 658.2 77.83">
  <defs>
    <style>
      .cls-1 {
        fill: #086a8b;
      }
    </style>
  </defs>
  <g id="Layer_1-2" data-name="Layer 1">
    <g>
      <polygon class="cls-1" points="44.57 50.49 25.51 1.18 0 1.18 0 77.08 21.1 77.08 21.1 34.88 35.53 77.08 53.18 77.08 67.5 35.2 67.5 77.08 88.6 77.08 88.6 1.18 63.19 1.18 44.57 50.49"/>
      <polygon class="cls-1" points="170.52 52.64 158.9 1.18 135.75 1.18 123.8 53.07 114.97 1.18 92.15 1.18 110.56 77.08 136.51 77.08 147.16 30.57 157.61 77.08 183.55 77.08 202.17 1.18 179.35 1.18 170.52 52.64"/>
      <path class="cls-1" d="M249.65,45.21c0,4.02-.99,7.16-2.96,9.42-1.97,2.26-4.9,3.39-8.77,3.39s-6.77-1.11-8.67-3.34c-1.9-2.22-2.85-5.38-2.85-9.47V1.18h-20.99v44.03c0,7.04,1.38,12.99,4.15,17.87,2.76,4.88,6.57,8.56,11.41,11.03,4.84,2.48,10.35,3.71,16.52,3.71s11.79-1.24,16.85-3.71c5.06-2.48,9.06-6.17,12-11.09,2.94-4.92,4.41-10.85,4.41-17.82V1.18h-21.1v44.03Z"/>
      <polygon class="cls-1" points="326.19 44.14 298.09 1.18 276.99 1.18 276.99 77.08 298.09 77.08 298.09 34.67 326.19 77.08 347.29 77.08 347.29 1.18 326.19 1.18 326.19 44.14"/>
      <path class="cls-1" d="M425.99,33.8h-39.4v15.18h21.21c-3.16,6.67-8.43,10.01-15.83,10.01-6.24,0-11-1.7-14.26-5.11-3.27-3.41-4.9-8.38-4.9-14.91,0-5.81,1.52-10.44,4.58-13.89,3.05-3.45,7.23-5.17,12.54-5.17,2.87,0,5.36.54,7.48,1.62,2.12,1.08,3.78,2.62,5.01,4.63h22.71c-1.51-7.97-5.38-14.25-11.63-18.84-6.24-4.59-14.14-6.89-23.68-6.89-7.61,0-14.32,1.63-20.13,4.9-5.81,3.27-10.32,7.82-13.51,13.67-3.19,5.85-4.79,12.51-4.79,19.97s1.6,14.23,4.79,20.08c3.19,5.85,7.71,10.41,13.56,13.67,5.85,3.27,12.58,4.9,20.19,4.9,6.24,0,11.8-1.13,16.69-3.39,4.88-2.26,8.92-5.15,12.11-8.67,3.19-3.51,5.61-7.28,7.27-11.3v-20.45Z"/>
      <path class="cls-1" d="M452.58,1.18l-27.67,75.9h22.18l4.09-12.38h26.91l4.09,12.38h22.28L476.91,1.18h-24.33ZM456.56,48.55l8.07-24.55,8.18,24.55h-16.26Z"/>
      <polygon class="cls-1" points="555.17 44.14 527.07 1.18 505.97 1.18 505.97 77.08 527.07 77.08 527.07 34.67 555.17 77.08 576.27 77.08 576.27 1.18 555.17 1.18 555.17 44.14"/>
      <path class="cls-1" d="M653.03,18.79c-3.45-5.92-8.13-10.53-14.05-13.83-5.92-3.3-12.47-4.95-19.65-4.95s-13.64,1.65-19.59,4.95c-5.96,3.3-10.68,7.91-14.16,13.83-3.48,5.92-5.22,12.61-5.22,20.08s1.74,14.16,5.22,20.08c3.48,5.92,8.2,10.55,14.16,13.89,5.96,3.34,12.49,5.01,19.59,5.01s13.63-1.67,19.59-5.01c5.96-3.34,10.66-7.97,14.1-13.89,3.44-5.92,5.17-12.61,5.17-20.08s-1.72-14.16-5.17-20.08ZM632.09,52.97c-3.12,3.52-7.37,5.27-12.76,5.27s-9.73-1.74-12.81-5.22c-3.09-3.48-4.63-8.2-4.63-14.16s1.54-10.78,4.63-14.26c3.08-3.48,7.36-5.22,12.81-5.22s9.63,1.74,12.76,5.22c3.12,3.48,4.68,8.24,4.68,14.26s-1.56,10.59-4.68,14.1Z"/>
    </g>
  </g>
</svg>